<svg width="626" height="595" viewBox="0 0 626 595" fill="none" xmlns="http://www.w3.org/2000/svg">
<path fill-rule="evenodd" clip-rule="evenodd" d="M358.887 118.776C353.896 112.917 350.518 105.737 351.082 97.6911C352.709 74.5096 384.978 79.6092 391.255 91.3093C397.532 103.009 396.786 132.687 388.674 134.779C385.439 135.612 378.547 133.57 371.532 129.342L375.935 160.491H349.938L358.887 118.776Z" fill="#B28B67"/>
<path fill-rule="evenodd" clip-rule="evenodd" d="M402.772 75.0896C402.234 73.1973 400.786 71.5771 398.835 71.0964C398.361 70.9798 397.873 70.9327 397.386 70.9523C397.211 70.9593 397.162 71.0097 397.08 70.8875C397.02 70.797 397.019 70.5757 396.994 70.4693C396.916 70.1384 396.819 69.8116 396.699 69.4932C396.291 68.4075 395.605 67.4465 394.778 66.6371C393.231 65.1227 391.14 64.0775 388.968 63.8885C387.779 63.785 386.599 63.9782 385.475 64.3649C384.893 64.565 384.329 64.8143 383.78 65.0899C383.614 65.1728 383.078 65.5791 382.912 65.5528C382.728 65.5238 382.36 65.0681 382.211 64.9537C380.368 63.5397 378.092 62.9837 375.796 63.0004C373.205 63.0199 370.71 63.1493 368.549 64.7289C368.092 65.0633 367.656 65.4294 367.241 65.8149C367.023 66.0179 366.811 66.2285 366.609 66.4478C366.487 66.5801 366.369 66.7154 366.255 66.8543C366.061 67.0901 366.092 67.1676 365.821 67.0031C364.781 66.3712 363.576 66.0757 362.362 66.2249C361.641 66.3135 360.94 66.5299 360.274 66.8148C360.047 66.9117 359.523 67.2985 359.281 67.3023C359.041 67.306 358.524 66.9474 358.277 66.8563C356.943 66.364 355.506 66.2426 354.104 66.4701C352.658 66.7049 351.237 67.2818 350.012 68.079C349.423 68.4625 348.909 68.8874 348.496 69.4577C348.318 69.7039 348.156 69.9643 347.954 70.1926C347.836 70.3263 347.602 70.4634 347.538 70.6326C347.576 70.5313 345.957 69.907 345.804 69.8671C344.99 69.6544 344.161 69.6975 343.364 69.9599C341.864 70.4532 340.575 71.5596 339.516 72.6938C338.972 73.2765 338.495 73.9205 338.091 74.6066C337.897 74.9352 337.72 75.2733 337.558 75.6185C337.479 75.7858 337.427 75.995 337.324 76.1456C337.191 76.3398 337.101 76.3435 336.859 76.4281C335.632 76.8579 334.514 77.5855 333.662 78.5685C332.801 79.5631 332.242 80.7879 332.008 82.0777C331.994 82.1536 331.986 82.4685 331.941 82.5096C331.88 82.5662 331.633 82.5412 331.54 82.5521C331.217 82.5901 330.896 82.6465 330.579 82.7214C329.996 82.8596 329.427 83.0629 328.89 83.3288C326.795 84.3654 325.297 86.3086 324.564 88.4952C323.794 90.79 323.808 93.419 324.728 95.6709C324.876 96.0347 325.053 96.3877 325.26 96.7217C325.388 96.9267 325.429 96.9272 325.346 97.1423C325.254 97.3817 325.085 97.6142 324.976 97.848C324.618 98.6111 324.369 99.4205 324.211 100.247C323.952 101.603 323.824 103.028 324.079 104.394C324.198 105.029 324.404 105.649 324.72 106.214C324.88 106.502 325.068 106.775 325.281 107.028C325.391 107.159 325.508 107.285 325.631 107.405C325.701 107.473 325.792 107.533 325.852 107.61C325.997 107.797 326.028 107.643 325.953 107.917C325.848 108.301 325.61 108.679 325.465 109.052C325.315 109.437 325.179 109.827 325.055 110.221C324.804 111.018 324.592 111.829 324.459 112.655C324.204 114.24 324.249 115.929 324.999 117.383C325.319 118.006 325.779 118.552 326.337 118.976C326.61 119.184 326.906 119.363 327.216 119.51C327.375 119.586 327.579 119.618 327.652 119.772C327.73 119.938 327.614 120.267 327.587 120.452C327.357 122.065 327.241 123.757 327.72 125.337C328.162 126.792 329.134 128.077 330.395 128.927C332.843 130.577 336.142 130.484 338.714 129.163C339.385 128.819 340.012 128.392 340.571 127.887C341.996 129.805 344.928 129.744 347.01 129.198C349.604 128.517 351.686 126.713 352.885 124.343C354.525 126.34 357.966 125.692 359.104 123.526C359.382 122.996 359.547 122.412 359.628 121.821C359.671 121.51 359.644 121.196 359.676 120.888C359.717 120.495 359.979 120.113 360.13 119.733C360.424 118.993 360.607 118.229 360.614 117.431C360.618 117.014 360.566 116.608 360.526 116.195C360.49 115.823 360.594 115.476 360.652 115.109C359.987 115.219 359.176 115.039 358.55 114.846C357.934 114.657 357.358 114.158 356.924 113.703C355.916 112.646 355.3 111.26 354.879 109.88C353.955 106.852 354.333 103.219 357.379 101.558C358.798 100.783 363.048 100.786 364.738 101.169C366.515 101.571 368.529 105.491 368.628 105.86C368.689 106.088 368.659 106.37 368.868 106.522C369.328 106.856 370.088 106.276 370.427 105.99C371.014 105.496 371.432 104.839 371.794 104.173C372.582 102.722 373.218 101.166 373.668 99.5768C374.014 98.352 374.235 97.0889 374.688 95.8953C375.139 94.7076 375.849 93.646 376.953 92.9732C378.154 92.2413 379.53 91.8558 380.849 91.3958C382.156 90.94 383.44 90.3828 384.453 89.4155C384.676 89.2028 384.892 88.9768 385.072 88.7264C385.213 88.5287 385.353 88.1503 385.569 88.025C385.904 87.83 386.393 88.337 386.683 88.5211C388.114 89.4296 389.307 90.6965 390.269 92.0806C391.226 93.4571 392.012 94.7816 392.65 96.3186C393.123 97.4586 393.419 98.9186 394.251 99.8528C394.623 100.27 397.386 100.522 398.281 100.158C399.176 99.794 400.178 98.8483 400.479 98.2556C400.786 97.6491 400.86 96.9827 400.728 96.3186C400.651 95.928 400.493 95.563 400.407 95.1793C400.334 94.857 400.268 94.5523 400.111 94.257C399.814 93.6974 399.306 93.2952 398.693 93.1271C399.331 92.5393 399.859 91.8361 400.225 91.05C400.605 90.2333 400.927 89.2402 401.018 88.3439C401.092 87.6158 400.978 86.8616 400.579 86.2359C400.161 85.5796 399.42 85.1514 398.779 84.742C399.758 83.9762 400.596 83.0448 401.285 82.0136C402.624 80.0082 403.453 77.4804 402.772 75.0896Z" fill="#191847"/>
<g filter="url(#filter0_d_0_1)">
<path fill-rule="evenodd" clip-rule="evenodd" d="M341.283 250.423L393.366 388.238L429.873 489.815H450.689L400.507 250.423L341.283 250.423Z" fill="#10B981"/>
<path fill-rule="evenodd" clip-rule="evenodd" d="M328.411 250.423C327.845 297.71 328.254 361.375 326.935 364.322C326.055 366.287 298.702 388.677 244.876 431.492L255.605 449.736C319.51 408.526 353.095 385.175 356.363 379.685C361.263 371.449 385.884 295.662 398.694 250.423H328.411Z" fill="#10B981"/>
<path fill-rule="evenodd" clip-rule="evenodd" d="M226 443.769L244.122 429.977L258.744 447.403C259.869 460.539 264.218 475.272 271.792 491.602L268.473 494.387L242.015 462.854L234.622 450.674L232.963 452.067L226 443.769Z" fill="#191847"/>
<path fill-rule="evenodd" clip-rule="evenodd" d="M427.941 509.313L429.024 486.566H451.772C462.558 494.148 476.64 500.286 494.018 504.98V509.313H452.855L438.773 507.147V509.313H427.941Z" fill="#191847"/>
</g>
<path fill-rule="evenodd" clip-rule="evenodd" d="M434.437 207.417L477.206 201.583C485.762 196.824 493.632 193.602 500.818 191.918C502.84 191.859 506.057 192.594 501.265 196.589C496.473 200.584 491.61 205.004 492.464 207.136C493.318 209.268 497.775 208.475 498.513 211.754C499.005 213.94 491.772 214.295 476.814 212.82L442.111 226.578L434.437 207.417ZM300.085 217.316L323.805 217.405C297.795 275.936 284.234 306.582 283.119 309.342C280.613 315.554 285.917 325.015 288.185 330.099C280.798 333.404 281.585 321.162 272.266 325.497C263.759 329.455 257.289 336.625 247.461 330.561C246.253 329.816 244.929 327.009 248.128 324.815C256.098 319.35 267.583 309.786 269.135 306.637C271.251 302.344 281.568 272.57 300.085 217.316Z" fill="#997659"/>
<path fill-rule="evenodd" clip-rule="evenodd" d="M365.056 142.087L383.628 143.324C388.202 184.704 413.116 210.842 468.896 201.993L476.306 255.282C424.171 262.02 378.449 241.147 369.078 184.634C366.652 170.004 364.737 154.78 365.056 142.087Z" fill="#AFB9C5"/>
<path fill-rule="evenodd" clip-rule="evenodd" d="M355.894 136.688L384.032 143.132C384.032 191.53 399.449 222.408 407.357 257.992H331.362C330.291 270.287 329.634 282.925 329.291 295.904H272.389C285.283 227.297 312.499 174.219 354.036 136.67H355.879L355.894 136.688Z" fill="#C5CFD6"/>
<path fill-rule="evenodd" clip-rule="evenodd" d="M343.352 188.946C341.393 219.104 342.545 242.12 346.807 257.992H331.362C333.482 233.634 337.224 210.619 343.352 188.946L343.352 188.946Z" fill="black" fill-opacity="0.1"/>
<path d="M455.094 94.2998C494.019 97.7551 506.273 143.168 538.71 189.074C571.148 234.98 624.489 281.874 625.931 329.754C628.094 377.635 579.077 426.009 513.481 476.852C447.164 527.2 364.99 579.524 269.119 591.864C172.527 604.698 63.6813 577.549 23.3146 521.277C-16.3312 465.005 12.5021 379.609 19.7104 317.414C26.9188 255.218 12.5021 216.716 -5.51872 153.04C-23.5395 89.8572 -44.4437 1.50009 3.13128 0.0192442C50.7063 -1.4616 166.76 82.9466 257.585 106.147C348.41 129.346 415.448 90.8444 455.094 94.2998Z" fill="#10B981" fill-opacity="0.1"/>
<g clip-path="url(#clip0_0_1)">
<path fill-rule="evenodd" clip-rule="evenodd" d="M5.76829 225.714C2.98857 224.247 -0.717089 225.948 0.828745 229.826C2.48461 233.978 8.60678 234.03 12.0643 233.947C11.7183 233.928 10.6039 230.12 10.2224 229.545C9.09728 227.847 7.4772 226.617 5.76829 225.714ZM37.7957 300.163C38.497 300.801 37.8528 300.223 37.7957 300.163V300.163ZM3.09051 244.495C1.46384 245.819 1.38625 248.155 2.71504 249.736C4.29731 251.619 7.18649 251.551 9.34318 251.367C10.3187 251.284 15.5279 250.84 14.2931 249.933C14.3881 249.971 14.5865 250.064 14.7987 250.19C14.913 250.634 15.0329 251.077 15.1579 251.517C15.1273 251.536 15.1012 251.557 15.0685 251.576C15.1039 251.559 15.1288 251.541 15.16 251.525C16.4127 255.929 18.1958 260.123 20.5306 264.046C19.6571 263.68 18.7523 263.403 17.8346 263.28C15.1171 262.914 9.40024 265.161 12.44 269.012C15.3547 272.703 19.8925 268.743 23.2004 268.197C26.409 272.962 29.9466 277.529 33.654 281.944C33.4269 282.02 33.2275 282.177 33.1132 282.423C31.6259 281.62 30.0761 280.471 28.6996 280.16C26.7133 279.712 22.6403 279.44 21.1391 281.332C19.2926 283.659 21.2719 285.549 23.4534 285.995C26.6167 286.642 30.7575 284.997 33.8013 283.886C34.1494 283.951 34.5295 283.843 34.7566 283.547C34.8238 283.523 34.8911 283.5 34.9565 283.478C38.7109 287.871 42.609 292.118 46.4833 296.273C46.4421 296.271 46.4008 296.268 46.3578 296.266C45.3472 295.56 44.2632 294.982 43.0881 294.678C40.37 293.973 37.1718 293.97 34.966 296.063C32.7687 298.147 31.9904 301.792 34.2636 304.132C38.8135 308.816 45.5173 298.136 47.8124 297.69C51.7496 301.868 55.9128 305.771 60.1413 309.596C59.6611 309.44 59.1687 309.326 58.6596 309.274C54.5131 308.852 44.7804 314.262 49.8692 319.584C54.3038 324.223 59.4364 315.295 63.0101 312.173C66.9948 315.738 71.0012 319.278 74.8952 322.957C72.7714 322.357 70.719 322.268 68.4423 323C66.0865 323.759 62.2852 325.652 63.7744 329.037C65.2891 332.479 69.8538 330.912 72.2314 329.82C73.5281 329.224 76.128 327.212 78.4107 326.365C84.6243 332.607 90.0064 339.483 94.0809 347.584C96.6247 352.641 98.555 358.044 99.9138 363.598C100.781 367.142 102.49 373.096 102.148 377.709C103.778 368.475 100.83 357.383 97.6539 349.129C94.7336 341.539 90.363 334.876 85.2439 328.878C86.5285 324.766 97.3414 318.835 90.8773 315.015C87.4447 312.995 83.929 316.347 83.1786 319.897C82.6633 322.336 83.4484 325.401 84.2818 327.768C82.6714 325.94 80.9973 324.17 79.2722 322.46C76.8882 320.095 74.447 317.799 71.9826 315.532C76.0437 311.472 79.8871 299.865 74.442 297.967C66.4013 295.172 70.2729 311.004 70.8338 313.971C70.9931 313.981 71.1172 313.93 71.2085 313.82C71.1633 314.092 71.1108 314.383 71.0473 314.676C66.3303 310.36 61.5434 306.128 56.9143 301.709C57.3313 301.381 57.9944 300.127 58.5154 299.46C59.6914 297.956 60.8167 296.385 61.639 294.625C62.938 291.845 64.1908 287.41 60.7474 285.774C57.0026 283.992 55.2231 289.009 55.197 292.001C55.1792 294.071 55.7088 296.037 55.9847 298.065C56.0709 298.698 55.7389 301.55 56.5487 300.323C56.5106 300.775 56.505 301.103 56.524 301.335C55.6929 300.538 54.8682 299.732 54.0488 298.92C54.0867 298.817 54.1149 298.706 54.1212 298.576C54.1652 297.684 53.3216 297.34 52.73 297.602C51.6487 296.508 50.578 295.401 49.5264 294.271C47.2975 291.879 45.0363 289.418 42.7908 286.905C43.278 286.46 43.0842 285.843 43.5398 285.37C43.9947 284.898 44.8907 284.637 45.4256 284.199C46.7709 283.096 47.8866 281.489 48.6934 279.908C50.0255 277.295 51.747 271.814 47.8556 270.569C43.8445 269.283 41.8086 274.559 41.5507 277.858C41.5005 278.497 41.9502 284.255 42.2944 286.346C38.1393 281.676 34.0526 276.83 30.3501 271.9C31.4727 271.889 34.6555 269.441 35.2989 268.773C36.8689 267.144 39.3645 263.544 36.6121 261.639C34.1648 259.95 31.1482 262.397 30.1017 264.775C29.9297 265.167 29.3231 268.812 29.2758 270.447C27.7434 268.357 26.2816 266.254 24.9216 264.144C24.0146 262.741 23.167 261.301 22.374 259.831C22.5649 259.716 22.7445 259.515 22.9141 259.265C26.9958 258.528 32.1996 251.751 27.4053 249.393C25.1227 248.272 22.6472 250.586 21.529 252.481C21.2999 252.869 20.9289 254.818 20.6269 256.355C18.3455 251.484 16.6021 246.328 15.2751 241.04C15.6305 240.946 15.9314 240.657 15.971 240.161C17.9527 238.958 19.5176 237.957 20.9009 235.645C21.7604 234.209 23.3081 230.929 20.7829 230.132C17.4967 229.095 15.4324 234.436 15.1636 237.067C15.1323 237.372 15.1334 238.261 15.1443 239.075C15.0302 239.058 14.9149 239.06 14.8017 239.081C14.047 235.807 13.4446 232.491 12.9654 229.169C14.7591 228.555 15.0693 218.531 13.875 217.103C11.2056 213.907 9.32239 218.524 9.46489 220.964C9.63324 223.841 10.8583 226.459 12.3171 228.781C12.4736 229.027 12.429 229.015 12.4695 228.673C12.4919 228.842 12.5452 228.967 12.6242 229.057C12.5489 230.572 12.4022 232.122 12.4726 233.463C12.6746 237.3 13.0947 241.16 13.7046 244.949C13.853 245.87 14.0229 246.784 14.2134 247.69C12.7717 246.383 10.828 245.222 10.0674 244.858C8.09341 243.917 5.05122 242.9 3.09051 244.495ZM102.379 377.722C102.288 379.061 102.061 380.286 101.637 381.297C101.955 380.146 102.199 378.95 102.379 377.722Z" fill="#F2F2F2"/>
<g opacity="0.7">
<path fill-rule="evenodd" clip-rule="evenodd" d="M59.8398 316.357C67.5599 315.931 77.1075 320.726 77.9312 329.657C78.5295 336.145 78.3442 342.615 79.2701 349.094C80.0105 354.272 81.5764 359.243 83.7121 363.96C85.7657 368.495 90.0256 372.356 91.1335 377.202C91.8397 380.289 91.4444 384.632 90.4706 387.652C89.2863 391.324 89.9157 391.034 92.2755 394.115C96.8997 400.152 101.063 406.344 104.008 413.555C108.249 423.941 111.03 436.082 109.456 447.452C109.255 448.895 109.018 454.077 107.15 454.439C105.063 454.844 106.039 451.88 106.15 450.923C106.86 444.816 107.491 439.477 106.635 433.274C103.33 409.342 87.1969 393.573 76.6917 373.261C76.1142 372.214 74.8951 369.719 74.0474 368.074C72.7091 365.476 71.3637 360.532 69.5521 358.606C66.14 354.977 69.2769 362.273 69.9417 363.665C70.7823 365.427 71.7071 367.3 72.5685 368.844C76.5099 376 80.9093 383.811 84.9799 391.188C67.3748 395.456 54.9761 372.933 50.2517 358.125C46.3591 345.925 41.7018 317.401 59.8398 316.357Z" fill="#059669"/>
<path fill-rule="evenodd" clip-rule="evenodd" d="M163.313 293.701C150.407 294.791 142.122 303.853 138.265 316.529C136.186 323.36 135.948 330.377 134.793 337.397C133.055 347.959 129.316 355.962 122.009 363.487C119.746 365.817 118.078 368.21 116.893 370.77C114.539 373.326 112.491 376.218 110.985 379.754C109.063 384.27 108.519 389.688 110.739 394.19C111.335 395.4 112.824 397.83 114.368 398.933C108.59 412.028 105.413 426.369 105.771 440.692C105.988 449.338 106.384 457.988 106.847 466.623C106.972 468.942 107.681 472.771 108.747 468.882C109.722 465.325 108.499 459.742 108.386 456.026C107.835 437.924 107.365 421.465 114.367 404.553C115.101 402.781 115.879 401.022 116.69 399.278C116.738 399.249 116.782 399.213 116.827 399.179C116.858 399.204 116.886 399.231 116.917 399.256C116.968 399.158 117.039 399.041 117.122 398.91C117.355 398.655 117.558 398.332 117.751 397.972C118.372 397.056 119.075 395.98 119.078 395.391C119.078 395.386 119.076 395.379 119.076 395.375C123.411 387.845 128.376 380.729 133.447 373.754C133.409 373.804 138.948 365.779 138.091 370.217C137.679 372.356 133.604 376.429 131.959 378.694C128.319 383.735 124.045 390.121 120.493 396.296C120.015 396.588 119.34 398.024 118.851 399.093C118.582 399.634 118.33 400.18 118.083 400.656C130.668 405.081 140.459 396.167 147.135 385.8C147.143 385.788 147.15 385.775 147.157 385.763C149.189 382.898 151.27 380.054 153.87 377.789C158.207 374.01 162.853 373.344 167.967 371.484C181.914 366.413 187.843 347.178 189.727 332.906C191.851 316.804 181.458 292.114 163.313 293.701Z" fill="#059669"/>
<path fill-rule="evenodd" clip-rule="evenodd" d="M137.819 248.61C124.574 263.281 118.175 283.629 113.107 302.758C107.448 324.124 103.71 345.819 103.567 368.032C103.473 382.627 103.1 397.312 103.9 411.89C104.184 417.067 104.669 422.253 105.44 427.375C105.504 427.796 107.229 439.231 108.879 436.567C109.818 435.051 107.111 424.704 106.906 422.981C105.756 413.274 105.488 403.495 105.545 393.718C105.637 377.62 105.191 361.605 106.724 345.567C106.952 343.172 107.133 340.657 107.668 338.314C108.235 335.824 107.513 336.911 109.361 335.925C111.157 334.967 113.377 335.103 115.24 333.901C122.633 329.131 126.414 316.878 129.357 308.838C132.724 299.645 134.769 289.841 136.404 280.166C137.603 273.057 138.461 265.992 138.947 258.792C139.1 256.523 139.109 254.15 139.528 251.919C139.641 251.317 140.207 250.252 140.187 249.719C140.143 248.591 139.503 247.927 139.451 246.98C138.896 247.511 138.352 248.055 137.819 248.61Z" fill="#059669"/>
<path fill-rule="evenodd" clip-rule="evenodd" d="M65.5953 444.071C65.5953 468.332 84.0769 488 106.875 488C129.673 488 148.155 468.332 148.155 444.071" fill="#27272A"/>
<path fill-rule="evenodd" clip-rule="evenodd" d="M110.187 444.211H108.006C108.157 441.298 108.357 438.391 108.815 435.511C110.565 424.497 116.036 408.32 128.035 406.533C128.478 406.466 130.106 406.455 132.079 406.578C133.014 406.022 134.061 405.686 135.164 405.609C145.381 404.807 156.79 413.578 161.718 422.706C165.691 430.065 165.022 439.729 162.568 447.548C160.925 452.782 157.339 460.245 151.358 460.318C143.876 460.409 143.515 450.568 143.37 444.815C143.178 437.166 142.27 430.503 136.606 425.289C135.286 424.075 133.844 423.006 132.51 421.808C130.422 419.934 128.115 418.014 127.846 414.913C127.475 410.634 129.745 409.864 133.21 410.659C133.801 410.794 139.751 413.636 138.87 411.39C138.601 410.704 137.619 410.16 136.379 409.753C133.17 409.381 129.343 408.951 128.243 409.208C116.37 411.98 111.748 429.481 110.52 440.6C110.388 441.801 110.281 443.005 110.187 444.211Z" fill="#059669"/>
</g>
</g>
<defs>
<filter id="filter0_d_0_1" x="222" y="250.423" width="276.018" height="282.891" filterUnits="userSpaceOnUse" color-interpolation-filters="sRGB">
<feFlood flood-opacity="0" result="BackgroundImageFix"/>
<feColorMatrix in="SourceAlpha" type="matrix" values="0 0 0 0 0 0 0 0 0 0 0 0 0 0 0 0 0 0 127 0" result="hardAlpha"/>
<feOffset dy="20"/>
<feGaussianBlur stdDeviation="2"/>
<feComposite in2="hardAlpha" operator="out"/>
<feColorMatrix type="matrix" values="0 0 0 0 0 0 0 0 0 0 0 0 0 0 0 0 0 0 0.1 0"/>
<feBlend mode="normal" in2="BackgroundImageFix" result="effect1_dropShadow_0_1"/>
<feBlend mode="normal" in="SourceGraphic" in2="effect1_dropShadow_0_1" result="shape"/>
</filter>
<clipPath id="clip0_0_1">
<rect width="190" height="272" fill="white" transform="translate(0 216)"/>
</clipPath>
</defs>
</svg>
