<svg width="309" height="368" viewBox="0 0 309 368" fill="none" xmlns="http://www.w3.org/2000/svg">
<path fill-rule="evenodd" clip-rule="evenodd" d="M131.262 72.4901C126.654 67.0814 123.536 60.4529 124.057 53.0255C125.558 31.625 155.349 36.3328 161.143 47.1339C166.938 57.9351 166.25 85.333 158.76 87.2635C155.774 88.0333 149.411 86.1475 142.935 82.2443L147 111H123L131.262 72.4901Z" fill="#B28B67"/>
<path fill-rule="evenodd" clip-rule="evenodd" d="M147.464 34.6853C144.301 34.1665 135.784 33.8099 134.213 33.8101C133.21 33.8101 132.122 34.0395 131.527 33.1178C131.041 32.3631 131.219 31.0867 131.074 30.2109C130.905 29.1935 130.665 28.1892 130.423 27.1874C129.733 24.3369 128.69 21.625 127.231 19.0788C124.493 14.3019 120.481 10.5601 115.417 8.38278C109.824 5.97866 103.496 5.42817 97.4805 5.91581C91.0431 6.43752 85.2159 8.56259 79.138 10.5624C73.346 12.4681 67.2796 13.2182 61.2219 12.2876C55.1185 11.35 50.5068 8.04203 45.3587 4.90232C40.0885 1.68801 34.0657 -0.414264 27.8354 0.0689985C22.0196 0.520259 16.6594 2.92161 11.8503 6.12947C7.35089 9.13081 3.63827 12.7418 1.54221 17.824C-0.712674 23.2909 -0.710602 29.2918 2.99743 34.1233C8.37207 41.1265 18.3499 42.9376 26.651 42.7575C31.4525 42.6537 36.1682 41.7772 40.7014 40.1828C46.7469 38.0564 51.9712 34.4523 57.627 31.528C60.2813 30.1558 63.0248 29.0288 65.9006 28.217C68.6912 27.4289 71.4398 27.0675 73.9665 28.7533C76.6393 30.5367 79.0344 32.2885 82.0922 33.4049C85.0256 34.476 88.1327 35.075 91.258 35.0509C97.3386 35.0039 103.333 33.1093 109.239 31.8402C114.054 30.8056 119.207 29.7743 124.117 30.769C126.166 31.1841 129.159 32.041 129.899 34.1702C117.444 36.4274 112.553 51.8302 116.064 63.1372C117.959 69.24 129.35 76.3742 133.779 73.1658C136.585 71.1333 134.881 68.4648 133.779 66.7033C131.668 63.3299 130.945 58.9967 134.852 56.648C138.222 54.6224 141.765 59.4327 141.832 59.4274C142.758 59.3544 150.76 54.8285 156.274 48.2241C161.713 48.5466 162.539 44.96 161.24 42.0269C159.941 39.0938 151.834 35.4024 147.464 34.6853Z" fill="#191847"/>
<path d="M113 368C155.526 368 190 335.093 190 294.5C190 253.907 155.526 221 113 221C70.4741 221 36 253.907 36 294.5C36 335.093 70.4741 368 113 368Z" fill="#D4D4D8"/>
<path fill-rule="evenodd" clip-rule="evenodd" d="M258.509 356.66C245.696 328.302 236.43 303.608 232.711 290.58C226.343 268.273 221.498 248.643 220.273 241.313C217.353 223.832 242.735 222.814 246.09 231.502C251.168 244.651 260.033 287.853 270.685 353.107L258.509 356.66ZM109.888 267.664C121.644 263.017 162.812 248.475 182.667 244.361C188.373 243.179 193.903 242.081 199.102 241.088C214.556 238.138 222.563 266.017 207.679 268.16C170.612 273.494 118.063 279.003 113.566 279.622C107.263 280.488 102.5 270.584 109.888 267.664Z" fill="#B28B67"/>
<path fill-rule="evenodd" clip-rule="evenodd" d="M208.587 233.416L145 201.047V194H152.562C214.08 209.676 245.515 219.722 246.869 224.138C246.883 224.185 246.897 224.233 246.909 224.281C246.94 224.321 246.97 224.362 247 224.403C259.192 241.17 266.493 323.027 268.889 329.156L245.528 332.641C236.591 299.503 208 276.418 208.759 236.729C208.554 235.565 208.503 234.461 208.587 233.416Z" fill="#10B981"/>
<path fill-rule="evenodd" clip-rule="evenodd" d="M150.283 252.64C144.465 251.476 139.107 250.436 134.523 249.632C104.909 244.438 96.2738 228.586 101.38 194H155.942C164.855 196.56 211.174 215.985 235.207 226.316C251.113 233.154 246.099 257.804 237.091 264.219C237.042 264.613 236.88 264.88 236.591 265C188.137 285.083 149.805 274.545 137 277.912L131.077 259.228L150.283 252.64Z" fill="#10B981"/>
<path fill-rule="evenodd" clip-rule="evenodd" d="M113.908 264.694C110.733 264.997 108.479 265.474 107.147 266.124C105.526 266.915 103.293 268.338 100.447 270.395C101.364 272.275 109.605 289.173 125.171 321.088C130.169 320.282 132.149 318.374 131.112 315.367C130.075 312.359 129.239 309.849 128.603 307.835L127.615 279.15C127.596 278.598 127.133 278.166 126.581 278.185C126.572 278.185 126.562 278.185 126.553 278.186L122.14 278.463C119.633 276.434 117.979 274.598 117.177 272.955C116.527 271.62 116.167 269.514 116.098 266.637L116.098 266.637C116.071 265.532 115.155 264.659 114.05 264.685C114.003 264.686 113.955 264.689 113.908 264.694Z" fill="#E4E4E4"/>
<path fill-rule="evenodd" clip-rule="evenodd" d="M252.678 351.402C251.559 354.388 251 356.623 251 358.106C251 359.909 251.3 362.54 251.901 366C253.993 366 272.794 366 308.303 366C309.769 361.155 308.923 358.539 305.765 358.152C302.607 357.766 299.984 357.417 297.895 357.106L271.68 345.419C271.176 345.194 270.584 345.421 270.359 345.925C270.356 345.934 270.352 345.942 270.348 345.951L268.663 350.039C265.74 351.403 263.364 352.085 261.537 352.085C260.052 352.085 258.001 351.485 255.384 350.286L255.384 350.285C254.38 349.825 253.193 350.266 252.733 351.27C252.713 351.313 252.695 351.357 252.678 351.402Z" fill="#E4E4E4"/>
<path fill-rule="evenodd" clip-rule="evenodd" d="M207 166.617L243.235 150.704C249.582 144.379 255.711 139.572 261.623 136.282C263.39 135.719 266.41 135.549 263.188 140.255C259.966 144.961 256.789 150.056 258.076 151.705C259.364 153.355 263.093 151.534 264.566 154.216C265.549 156.004 259.262 158.143 245.707 160.633L218.57 181.439L207 166.617ZM60.5083 171L81 175.066C60.3921 213.471 49.3404 233.826 47.845 236.13C44.4804 241.315 47.6197 250.817 48.7793 255.821C41.5044 257.515 44.3734 246.565 35.1672 248.851C26.7641 250.938 19.6394 256.293 11.8039 249.071C10.8406 248.183 10.1354 245.407 13.4198 243.984C21.6026 240.437 33.692 233.796 35.6523 231.218C38.3256 227.702 46.6109 207.629 60.5083 171Z" fill="#B28B67"/>
<path fill-rule="evenodd" clip-rule="evenodd" d="M136.695 94.3321L145.342 92.8489C164.176 111.119 171.862 155.012 184.414 160.823C196.281 166.316 213.104 161 233.1 153.823L239.224 167.505C221.055 187.161 182.349 203.767 166.66 194.287C141.576 179.13 135.786 124.994 136.695 94.3321Z" fill="#3F3F46"/>
<path fill-rule="evenodd" clip-rule="evenodd" d="M99 203C133.672 203 159.176 203 175.511 203C179.008 203 178.349 197.952 177.843 195.404C172.011 166.004 149.241 134.312 149.241 92.4607L127.172 89C108.917 118.358 102.605 154.505 99 203Z" fill="#DDE3E9"/>
<path fill-rule="evenodd" clip-rule="evenodd" d="M91.3688 173.233C75.7714 201.368 62.6609 221.623 52.0374 234L36 230.859C46.3306 166.791 76.2466 119.504 125.748 89H129.731L134.486 89C154.299 156.537 159.761 201.537 150.872 224H82C83.0896 207.563 86.5834 190.181 91.3688 173.233H91.3688Z" fill="#3F3F46"/>
</svg>
